<svg width="16" height="17" viewBox="0 0 16 17" fill="none" xmlns="http://www.w3.org/2000/svg">
<path d="M15.1336 7.49083L8.8836 1.24083C8.6492 1.00658 8.33139 0.875 8.00001 0.875C7.66863 0.875 7.35081 1.00658 7.11641 1.24083L0.866414 7.49083C0.749777 7.6066 0.657319 7.7444 0.594417 7.89623C0.531515 8.04805 0.499423 8.21086 0.500008 8.3752V15.8752C0.500008 16.041 0.565856 16.1999 0.683066 16.3171C0.800276 16.4344 0.959247 16.5002 1.12501 16.5002H14.875C15.0408 16.5002 15.1997 16.4344 15.317 16.3171C15.4342 16.1999 15.5 16.041 15.5 15.8752V8.3752C15.5006 8.21086 15.4685 8.04805 15.4056 7.89623C15.3427 7.7444 15.2502 7.6066 15.1336 7.49083ZM14.25 15.2502H1.75001V8.3752L8.00001 2.1252L14.25 8.3752V15.2502Z" fill="#6A6E75"/>
</svg>
